<svg width="150" height="150" viewBox="0 0 150 150" fill="none" xmlns="http://www.w3.org/2000/svg">
<rect width="150" height="150" fill="url(#paint0_linear_4_26)"/>
<path d="M115.5 78.555C114.792 86.2149 111.917 93.5148 107.212 99.6005C102.507 105.686 96.1657 110.306 88.9307 112.919C81.6956 115.533 73.8659 116.032 66.3578 114.357C58.8496 112.683 51.9735 108.905 46.534 103.466C41.0946 98.0265 37.3167 91.1504 35.6426 83.6422C33.9685 76.1341 34.4672 68.3044 37.0806 61.0693C39.6939 53.8343 44.3138 47.4931 50.3995 42.7879C56.4852 38.0826 63.7851 35.2079 71.445 34.5C66.9604 40.5672 64.8023 48.0425 65.3634 55.5664C65.9245 63.0902 69.1674 70.1628 74.5023 75.4977C79.8373 80.8326 86.9098 84.0755 94.4337 84.6366C101.957 85.1977 109.433 83.0396 115.5 78.555Z" fill="#D9D9D9" stroke="#D9D9D9" stroke-width="4" stroke-linecap="round" stroke-linejoin="round"/>
<defs>
<linearGradient id="paint0_linear_4_26" x1="75" y1="0" x2="75" y2="150" gradientUnits="userSpaceOnUse">
<stop stop-color="#070707"/>
<stop offset="1" stop-color="#1D1D1D" stop-opacity="0"/>
</linearGradient>
</defs>
</svg>
