<svg width="98" height="107" viewBox="0 0 98 107" fill="none" xmlns="http://www.w3.org/2000/svg">
<path d="M90.8432 79.9663C76.1104 105.484 43.4806 114.227 17.9626 99.4946C11.0133 95.4824 5.16321 90.0547 0.707487 83.5845C-0.782234 81.4212 0.181402 78.4336 2.65437 77.5485C22.7514 70.3555 33.5152 62.02 39.7612 50.0972C46.3367 37.5454 48.036 23.7961 43.436 4.94966C42.8 2.34361 44.8584 -0.137763 47.5371 0.00595335C55.8426 0.451553 63.9567 2.83733 71.3149 7.08562C96.8329 21.8185 105.576 54.4482 90.8432 79.9663ZM46.3251 53.5358C39.4982 66.5674 28.2084 75.5609 9.49289 82.8995C12.9034 86.9486 17.0053 90.3855 21.6676 93.0773C43.6415 105.764 71.7393 98.2351 84.4259 76.2613C97.1126 54.2874 89.5838 26.1895 67.6099 13.5029C63.0529 10.872 58.1482 9.06133 53.0666 8.11347L51.6765 7.87638C55.2133 25.5649 53.4298 39.9739 46.3251 53.5358Z" fill="#151515"/>
</svg>
